<svg width="138" height="68" viewBox="0 0 138 68" fill="none" xmlns="http://www.w3.org/2000/svg">
<path d="M64.3516 13.1255L116.135 30.0793V32.4036H12.5684L12.5684 30.0793L64.3516 13.1255Z" fill="#2E314A"/>
<path d="M27.3449 34.8191H62.1639V67.4506H59.4294V37.7359H30.0793V67.4506H27.3449V34.8191Z" fill="#2E314A"/>
<path d="M31.6288 38.8296H58.2445V67.4506H31.6288V38.8296Z" fill="#2E314A"/>
<path d="M14.4016 36.8244H22.0582V67.4506H14.4016V36.8244Z" fill="#2E314A"/>
<path d="M3.3548e-05 36.8244H14.4016V43.5694H3.3548e-05V36.8244Z" fill="#2E314A"/>
<path d="M3.3548e-05 30.4439H6.74509V36.8244H3.3548e-05V30.4439Z" fill="#2E314A"/>
<path d="M128.521 30.4439H122.14V34.8191H128.521V30.4439Z" fill="#2E314A"/>
<path d="M3.3548e-05 30.4439L0 26.0687L6.74509 30.4439H3.3548e-05Z" fill="#2E314A"/>
<path d="M128.521 30.4439V25.8864L122.14 30.4439H128.521Z" fill="#2E314A"/>
<path d="M0 26.0687L64.3515 0V7.10965L6.74509 30.4439L0 26.0687Z" fill="#2E314A"/>
<path d="M128.521 25.8864L64.3515 0V7.10965L122.14 30.4439L128.521 25.8864Z" fill="#2E314A"/>
<rect x="34.4543" y="41.7464" width="20.9644" height="3.28138" fill="#D8263E"/>
<rect x="34.4543" y="48.3091" width="20.9644" height="3.28138" fill="#D8263E"/>
<rect x="34.4543" y="55.0543" width="20.9644" height="3.28138" fill="#D8263E"/>
<rect x="34.4543" y="61.0702" width="20.9644" height="3.28138" fill="#D8263E"/>
<path d="M67.7738 58.7611H64.8984L66.5328 40.3185H65.988L66.2907 37.4929H71.8295L73.706 58.7611H70.8307L70.4978 55.1151H68.1067L67.7738 58.7611ZM68.3488 52.2895H70.2556L69.3174 41.7161L68.3488 52.2895Z" fill="#D8263E"/>
<path d="M74.7516 58.7611V40.3185H74.2976L74.6003 37.4929H79.3219L80.7747 48.9473L82.2577 37.4929H86.8885V58.7611H84.0132V42.2326L81.7735 55.7228H79.8062L77.627 42.5972V58.7611H74.7516Z" fill="#D8263E"/>
<path d="M95.1263 55.9354L94.8841 58.7611H88.2557V40.3185H87.8017L88.1044 37.4929H95.1263L94.8236 40.3185H91.1311V46.699H94.5209L94.2183 49.5246H91.1311V55.9354H95.1263Z" fill="#D8263E"/>
<path d="M95.8744 40.3185L96.1771 37.4929H100.959C101.807 37.4929 102.493 37.7562 103.017 38.2828C103.542 38.7892 103.804 39.4678 103.804 40.3185V49.8284C103.804 50.274 103.713 50.6792 103.532 51.0437C103.35 51.3881 103.108 51.6818 102.805 51.9249L104.743 58.7611H101.837L100.112 52.6541H99.2037V58.7611H96.3284V40.3185H95.8744ZM100.778 40.3185H99.2037V49.8284H100.778C100.878 49.8284 100.929 49.7778 100.929 49.6765V40.4704C100.929 40.3691 100.878 40.3185 100.778 40.3185Z" fill="#D8263E"/>
<path d="M105.491 58.7611V40.3185H105.037L105.34 37.4929H108.366V58.7611H105.491Z" fill="#D8263E"/>
<path d="M117.436 49.5246V56.057C117.436 56.9077 117.174 57.5964 116.649 58.123C116.124 58.6294 115.438 58.8826 114.591 58.8826H112.412C111.564 58.8826 110.878 58.6294 110.353 58.123C109.829 57.5964 109.566 56.9077 109.566 56.057V40.197C109.566 39.3462 109.829 38.6677 110.353 38.1613C110.878 37.6347 111.564 37.3713 112.412 37.3713H114.591C115.438 37.3713 116.124 37.6347 116.649 38.1613C117.174 38.6677 117.436 39.3462 117.436 40.197V47.0028L114.56 46.699V40.3489C114.56 40.2476 114.51 40.197 114.409 40.197H112.593C112.492 40.197 112.442 40.2476 112.442 40.3489V55.9051C112.442 56.0063 112.492 56.057 112.593 56.057H114.409C114.51 56.057 114.56 56.0063 114.56 55.9051V49.5246H117.436Z" fill="#D8263E"/>
<path d="M121.213 58.7611H118.338L119.972 40.3185H119.427L119.73 37.4929H125.269L127.145 58.7611H124.27L123.937 55.1151H121.546L121.213 58.7611ZM121.788 52.2895H123.695L122.757 41.7161L121.788 52.2895Z" fill="#D8263E"/>
<path d="M134.396 37.4929H137.271V58.7611H134.396L131.066 45.7571V58.7611H128.191V40.3185H127.737L128.04 37.4929H131.218L134.577 51.0134L134.396 37.4929Z" fill="#D8263E"/>
<path d="M68.2965 65.6052C68.2965 65.8864 68.171 66.114 67.9202 66.288C67.6693 66.4554 67.3413 66.5391 66.9361 66.5391H65.8941C65.4889 66.5391 65.1608 66.4554 64.91 66.288C64.6591 66.114 64.5337 65.8864 64.5337 65.6052V60.3633C64.5337 60.0822 64.6591 59.8579 64.91 59.6905C65.1608 59.5165 65.4889 59.4294 65.8941 59.4294H66.9361C67.3413 59.4294 67.6693 59.5165 67.9202 59.6905C68.171 59.8579 68.2965 60.0822 68.2965 60.3633V65.6052ZM65.9809 60.3633C65.9327 60.3633 65.9085 60.3801 65.9085 60.4135V65.555C65.9085 65.5885 65.9327 65.6052 65.9809 65.6052H66.8492C66.8975 65.6052 66.9216 65.5885 66.9216 65.555V60.4135C66.9216 60.3801 66.8975 60.3633 66.8492 60.3633H65.9809Z" fill="#D8263E"/>
<path d="M71.5465 59.4696H72.9213L72.024 66.4989H69.6217L68.7244 59.4696H70.0993L70.8229 65.0228L71.5465 59.4696Z" fill="#D8263E"/>
<path d="M76.7792 65.565L76.6634 66.4989H73.494V60.4035H73.2769L73.4216 59.4696H76.7792L76.6344 60.4035H74.8688V62.5123H76.4897L76.345 63.4462H74.8688V65.565H76.7792Z" fill="#D8263E"/>
<path d="M77.1369 60.4035L77.2816 59.4696H79.5682C79.9734 59.4696 80.3015 59.5566 80.5523 59.7307C80.8032 59.8981 80.9286 60.1223 80.9286 60.4035V63.5466C80.9286 63.6939 80.8852 63.8278 80.7984 63.9483C80.7115 64.0621 80.5957 64.1592 80.451 64.2395L81.3772 66.4989H79.9879L79.163 64.4805H78.7288V66.4989H77.354V60.4035H77.1369ZM79.4814 60.4035H78.7288V63.5466H79.4814C79.5296 63.5466 79.5538 63.5299 79.5538 63.4964V60.4537C79.5538 60.4202 79.5296 60.4035 79.4814 60.4035Z" fill="#D8263E"/>
<path d="M83.0394 59.4696V62.5023H83.8643V59.4696H85.2392V66.4989H83.8643V63.4362H83.0394V66.4989H81.6645V60.4035H81.4475L81.5922 59.4696H83.0394Z" fill="#D8263E"/>
<path d="M89.1738 65.565L89.058 66.4989H85.8886V60.4035H85.6715L85.8162 59.4696H89.1738L89.0291 60.4035H87.2635V62.5123H88.8843L88.7396 63.4462H87.2635V65.565H89.1738Z" fill="#D8263E"/>
<path d="M90.9064 66.4989H89.5315L90.313 60.4035H90.0525L90.1972 59.4696H92.8456L93.7429 66.4989H92.3681L92.2089 65.2939H91.0656L90.9064 66.4989ZM91.1813 64.36H92.0931L91.6444 60.8654L91.1813 64.36Z" fill="#D8263E"/>
<path d="M97.9333 65.565C97.9333 65.8462 97.8079 66.0738 97.557 66.2479C97.3062 66.4152 96.9781 66.4989 96.5729 66.4989H94.1705V60.4035H93.9534L94.0982 59.4696H96.5729C96.9781 59.4696 97.3062 59.5566 97.557 59.7307C97.8079 59.8981 97.9333 60.1223 97.9333 60.4035V65.565ZM96.4861 60.4035H95.5454V65.565H96.4861C96.5343 65.565 96.5584 65.5483 96.5584 65.5148V60.4537C96.5584 60.4202 96.5343 60.4035 96.4861 60.4035Z" fill="#D8263E"/>
<path d="M104.873 65.565C104.873 65.8462 104.747 66.0738 104.496 66.2479C104.245 66.4152 103.917 66.4989 103.512 66.4989H101.11V60.4035H100.893L101.037 59.4696H103.512C103.917 59.4696 104.245 59.5566 104.496 59.7307C104.747 59.8981 104.873 60.1223 104.873 60.4035V65.565ZM103.425 60.4035H102.485V65.565H103.425C103.474 65.565 103.498 65.5483 103.498 65.5148V60.4537C103.498 60.4202 103.474 60.4035 103.425 60.4035Z" fill="#D8263E"/>
<path d="M109.211 65.6052C109.211 65.8864 109.086 66.114 108.835 66.288C108.584 66.4554 108.256 66.5391 107.851 66.5391H106.809C106.404 66.5391 106.076 66.4554 105.825 66.288C105.574 66.114 105.449 65.8864 105.449 65.6052V60.3633C105.449 60.0822 105.574 59.8579 105.825 59.6905C106.076 59.5165 106.404 59.4294 106.809 59.4294H107.851C108.256 59.4294 108.584 59.5165 108.835 59.6905C109.086 59.8579 109.211 60.0822 109.211 60.3633V65.6052ZM106.896 60.3633C106.848 60.3633 106.823 60.3801 106.823 60.4135V65.555C106.823 65.5885 106.848 65.6052 106.896 65.6052H107.764C107.812 65.6052 107.837 65.5885 107.837 65.555V60.4135C107.837 60.3801 107.812 60.3633 107.764 60.3633H106.896Z" fill="#D8263E"/>
<path d="M113.621 65.6052C113.621 65.8864 113.495 66.114 113.245 66.288C112.994 66.4554 112.666 66.5391 112.26 66.5391H111.218C110.813 66.5391 110.485 66.4554 110.234 66.288C109.984 66.114 109.858 65.8864 109.858 65.6052V60.3633C109.858 60.0822 109.984 59.8579 110.234 59.6905C110.485 59.5165 110.813 59.4294 111.218 59.4294H112.26C112.666 59.4294 112.994 59.5165 113.245 59.6905C113.495 59.8579 113.621 60.0822 113.621 60.3633V65.6052ZM111.305 60.3633C111.257 60.3633 111.233 60.3801 111.233 60.4135V65.555C111.233 65.5885 111.257 65.6052 111.305 65.6052H112.174C112.222 65.6052 112.246 65.5885 112.246 65.555V60.4135C112.246 60.3801 112.222 60.3633 112.174 60.3633H111.305Z" fill="#D8263E"/>
<path d="M114.052 60.4035L114.197 59.4696H116.484C116.889 59.4696 117.217 59.5566 117.468 59.7307C117.718 59.8981 117.844 60.1223 117.844 60.4035V63.5466C117.844 63.6939 117.8 63.8278 117.714 63.9483C117.627 64.0621 117.511 64.1592 117.366 64.2395L118.293 66.4989H116.903L116.078 64.4805H115.644V66.4989H114.269V60.4035H114.052ZM116.397 60.4035H115.644V63.5466H116.397C116.445 63.5466 116.469 63.5299 116.469 63.4964V60.4537C116.469 60.4202 116.445 60.4035 116.397 60.4035Z" fill="#D8263E"/>
<path d="M119.812 64.4906V65.555C119.812 65.5885 119.836 65.6052 119.884 65.6052H120.463C120.511 65.6052 120.535 65.5885 120.535 65.555V63.7475L119.392 63.396C119.305 63.3759 119.185 63.3424 119.03 63.2956C118.876 63.242 118.736 63.165 118.61 63.0646C118.495 62.9642 118.437 62.8269 118.437 62.6529V60.3633C118.437 60.0822 118.562 59.8579 118.813 59.6905C119.064 59.5165 119.392 59.4294 119.797 59.4294H120.55C120.955 59.4294 121.283 59.5165 121.534 59.6905C121.785 59.8579 121.91 60.0822 121.91 60.3633V61.8495L120.535 61.7692V60.4135C120.535 60.3801 120.511 60.3633 120.463 60.3633H119.884C119.836 60.3633 119.812 60.3801 119.812 60.4135V62.5123L120.955 62.8638C121.042 62.8905 121.162 62.9274 121.317 62.9742C121.471 63.0211 121.606 63.0947 121.722 63.1951C121.847 63.2956 121.91 63.4328 121.91 63.6069V65.6052C121.91 65.8864 121.785 66.114 121.534 66.288C121.283 66.4554 120.955 66.5391 120.55 66.5391H119.797C119.392 66.5391 119.064 66.4554 118.813 66.288C118.562 66.114 118.437 65.8864 118.437 65.6052V64.4906H119.812Z" fill="#D8263E"/>
<path d="M125.166 66.4989V60.4035H124.949L125.093 59.4696H126.541V66.4989H125.166Z" fill="#D8263E"/>
<path d="M130.295 59.4696H131.67V66.4989H130.295L128.703 62.201V66.4989H127.328V60.4035H127.111L127.256 59.4696H128.775L130.382 63.9382L130.295 59.4696Z" fill="#D8263E"/>
<path d="M136.078 63.4462V65.6052C136.078 65.8864 135.953 66.114 135.702 66.288C135.451 66.4554 135.123 66.5391 134.718 66.5391H133.676C133.271 66.5391 132.943 66.4554 132.692 66.288C132.441 66.114 132.315 65.8864 132.315 65.6052V60.3633C132.315 60.0822 132.441 59.8579 132.692 59.6905C132.943 59.5165 133.271 59.4294 133.676 59.4294H134.718C135.123 59.4294 135.451 59.5165 135.702 59.6905C135.953 59.8579 136.078 60.0822 136.078 60.3633V62.6127L134.703 62.5123V60.4135C134.703 60.3801 134.679 60.3633 134.631 60.3633H133.763C133.714 60.3633 133.69 60.3801 133.69 60.4135V65.555C133.69 65.5885 133.714 65.6052 133.763 65.6052H134.631C134.679 65.6052 134.703 65.5885 134.703 65.555V63.4462H136.078Z" fill="#D8263E"/>
<path d="M136.654 65.565H138V66.4989H136.654V65.565Z" fill="#D8263E"/>
</svg>
